<svg id="Layer_1" data-name="Layer 1" xmlns="http://www.w3.org/2000/svg" viewBox="0 0 456 517"><defs><style>.cls-1{fill:#fefefe;}.cls-2{fill:#1a8e9d;}.cls-3{fill:#8803e2;}</style></defs><path class="cls-1" d="M1307.90413,315.97871V490.91306a6.10258,6.10258,0,0,1-1.35359-1.27266c-7.99171-14.52152-15.90462-29.08655-23.92708-43.591-8.42-15.22314-16.97455-30.37178-25.38579-45.59965-1.64158-2.97184-2.70815-3.58187-4.86294-.275a96.379,96.379,0,0,0-6.25071,10.15711c-1.50873,3.09271-2.66932,3.30229-4.65953.18508-5.53011-8.66158-11.33552-17.147-17.01021-25.71661-9.60852-14.51018-19.27552-28.98262-28.7453-43.58292-2.33221-3.59575-4.20306-4.16185-6.515-.27986-2.03189,3.41175-4.09663,6.81245-5.93057,10.33081-1.36545,2.61971-2.76339,2.57469-4.45478.49695a33.58634,33.58634,0,0,1-1.9125-2.9076q-20.95695-32.06645-41.932-64.12114c-5.0826-7.73767-7.48292-7.408-11.94191,1.13577-8.43934,16.17048-16.8259,32.37222-25.57072,48.3772-2.458,4.49865-1.72164,7.67873,1.59441,11.03266,3.3863,3.425,6.60816,7.01434,9.85965,10.57044,19.8444,21.7034,39.66708,43.42755,61.30226,63.39842,5.60762,5.17625,5.60942,5.15135,10.46479-1.06842,1.022-1.30914,2.1942-2.49982,3.25738-3.77824,3.85979-4.64093,4.26245-4.73761,8.36143-.36474,16.93181,18.06339,32.28656,37.48045,48.10476,56.49333,2.77443,3.33475,3.87419,2.465,5.57086-.43752,2.34346-4.00893,4.87389-7.9114,7.12965-11.96774,1.31454-2.36389,2.35011-2.73664,4.44316-.69645,6.65591,6.48768,13.47236,12.811,20.24279,19.18079q15.05,14.15936,30.12143,28.29578V516.9033H1113.98606c.14325-.27974.24333-.7696.436-.80914,10.50661-2.15935,21.06367-3.94182,31.3594-7.20055a255.61018,255.61018,0,0,0,34.62661-13.94972c6.39823-3.10918,12.86242-6.105,19.10847-9.49869,6.39629-3.47523,9.19128-8.42421,3.69625-15.62356-7.34461-9.62267-16.89029-17.13914-25.13659-25.91066-3.61228-3.84237-8.49745-3.8499-13.23266-1.79809-10.34579,4.483-20.4595,9.58875-31.033,13.437-13.68877,4.98211-28.18239,7.06925-42.60255,8.3373-19.32774,1.69968-38.44057-1.27525-57.051-6.34265a160.88449,160.88449,0,0,1-52.15882-24.47534c-7.93222-5.70871-15.98461-11.23154-22.86871-18.29121-6.69145-6.86214-12.72737-14.221-18.83908-21.59019-7.18747-8.66636-12.38507-18.28135-17.24872-28.09078-7.67623-15.48213-12.51444-32.00443-16.15332-48.9379a123.83442,123.83442,0,0,1-2.53426-28.35371,150.4707,150.4707,0,0,1,2.29148-25.42149,213.909,213.909,0,0,1,15.06182-48.52982c10.85316-23.91828,27.80877-43.24753,47.44525-60.31283a173.12137,173.12137,0,0,1,40.3184-25.78541c13.80163-6.48516,28.484-10.23294,43.35367-12.60565,14.61029-2.3313,29.42227-3.35447,44.35347-1.36492a226.3869,226.3869,0,0,1,33.47736,6.58217,143.01261,143.01261,0,0,1,23.98382,9.45938c9.2658,4.63446,18.6201,9.39525,26.74426,15.55615,11.78155,8.93443,23.21684,18.42552,32.60085,30.28345a254.53562,254.53562,0,0,1,19.87286,28.22537c7.17525,12.14218,12.03373,25.34133,15.83959,39.01361,4.03827,14.50722,4.83765,29.353,6.30489,44.14771.81939,8.2621-1.21354,16.39412-1.85377,24.59142-.78238,10.01763-3.49837,19.55065-6.4565,29.01176-2.231,7.1355-5.18131,14.05182-7.94241,21.01378-1.69375,4.27067.1362,7.60728,2.888,10.36775,4.64086,4.65539,9.55995,9.04333,14.495,13.3928,5.143,4.53272,10.33682,9.0217,15.713,13.271,3.50615,2.77124,9.07533,1.11531,10.89338-2.82685,2.17809-4.72278,4.45935-9.39805,6.62778-14.12513a190.26565,190.26565,0,0,0,11.23183-30.48206c2.92274-11.03611,5.53739-22.26316,5.22328-33.86589A1.30583,1.30583,0,0,1,1307.90413,315.97871Z" transform="translate(-852 0)"/><path class="cls-2" d="M1307.90413,315.97871a1.30583,1.30583,0,0,0-1.08277,1.423c.31411,11.60273-2.30054,22.82978-5.22328,33.86589a190.26565,190.26565,0,0,1-11.23183,30.48206c-2.16843,4.72708-4.44969,9.40235-6.62778,14.12513-1.81805,3.94216-7.38723,5.59809-10.89338,2.82685-5.37615-4.24932-10.56994-8.7383-15.713-13.271-4.93505-4.34947-9.85414-8.73741-14.495-13.3928-2.75183-2.76047-4.58178-6.09708-2.888-10.36775,2.7611-6.962,5.71142-13.87828,7.94241-21.01378,2.95813-9.46111,5.67412-18.99413,6.4565-29.01176.64023-8.1973,2.67316-16.32932,1.85377-24.59142-1.46724-14.79471-2.26662-29.64049-6.30489-44.14771-3.80586-13.67228-8.66434-26.87143-15.83959-39.01361a254.53562,254.53562,0,0,0-19.87286-28.22537c-9.384-11.85793-20.8193-21.349-32.60085-30.28345-8.12416-6.1609-17.47846-10.92169-26.74426-15.55615a143.01261,143.01261,0,0,0-23.98382-9.45938,226.3869,226.3869,0,0,0-33.47736-6.58217c-14.9312-1.98955-29.74318-.96638-44.35347,1.36492-14.86968,2.37271-29.552,6.12049-43.35367,12.60565a173.12137,173.12137,0,0,0-40.3184,25.78541c-19.63648,17.0653-36.59209,36.39455-47.44525,60.31283a213.909,213.909,0,0,0-15.06182,48.52982,150.4707,150.4707,0,0,0-2.29148,25.42149,123.83442,123.83442,0,0,0,2.53426,28.35371c3.63888,16.93347,8.47709,33.45577,16.15332,48.9379,4.86365,9.80943,10.06125,19.42442,17.24872,28.09078,6.11171,7.36924,12.14763,14.728,18.83908,21.59019,6.8841,7.05967,14.93649,12.5825,22.86871,18.29121a160.88449,160.88449,0,0,0,52.15882,24.47534c18.6104,5.0674,37.72323,8.04233,57.051,6.34265,14.42016-1.268,28.91378-3.35519,42.60255-8.3373,10.57353-3.84825,20.68724-8.954,31.033-13.437,4.73521-2.05181,9.62038-2.04428,13.23266,1.79809,8.2463,8.77152,17.792,16.288,25.13659,25.91066,5.495,7.19935,2.7,12.14833-3.69625,15.62356-6.246,3.39365-12.71024,6.38951-19.10847,9.49869a255.61018,255.61018,0,0,1-34.62661,13.94972c-10.29573,3.25873-20.85279,5.0412-31.3594,7.20055-.19264.03954-.29272.5294-.436.80914h-63.973c-3.81-1.0419-7.563-2.61474-11.44021-3.03127-14.71453-1.58113-28.54154-6.343-42.24611-11.45773a155.18142,155.18142,0,0,1-25.11611-11.65249c-10.25237-6.08491-20.79182-11.66561-30.07953-19.30748-5.567-4.58056-11.05506-9.25245-16.62261-13.82486a141.85222,141.85222,0,0,1-18.18618-18.51005A252.6602,252.6602,0,0,1,886.94958,413.469c-7.61594-11.80877-14.40092-24.06846-19.252-37.07117a263.13714,263.13714,0,0,1-11.57986-39.20712c-1.17716-5.765-1.13132-11.84273-4.021-17.21345V259.99972c1.09448-.19939.99993-1.07354,1.13463-1.88309,1.35381-8.13648,1.99333-16.48227,4.26386-24.35681,4.6625-16.17024,9.53932-32.26133,16.95255-47.55469,9.08109-18.73417,20.96366-35.47117,34.63013-50.89769a270.88194,270.88194,0,0,1,27.43539-26.33562,180.65981,180.65981,0,0,1,47.9313-29.16777c14.31194-5.96785,29.38009-10.133,44.51862-13.87664,4.05-1.0015,8.58385-1.55267,12.16977-4.66494,3.88329-3.37037,4.66982-7.58255,3.82463-11.992-.661-3.44843-2.41907-6.52383-6.94021-6.9965-3.32886-.348-6.63258.02414-9.91458-.352-4.042-.46329-9.02693-.54177-9.67659-5.6655-1.54173-12.1594-3.78142-24.51382,2.59912-36.15924H1138.9755c-.9993,2.85775,3.18606,2.64613,2.99352,5.54778-.52,7.8367,1.46084,15.54676.11509,23.61422C1140.014,41.66879,1140.66189,41.77716,1127.888,41.95a16.72292,16.72292,0,0,0-1.9962.021c-4.409.59555-8.3743,1.95764-9.85124,6.74468-1.6079,5.21145.54118,9.2021,4.52647,13.04919,4.33258,4.18238,9.84575,2.59331,14.62828,4.00809,15.24423,4.50958,30.53888,8.12165,44.73641,16.02961,9.83135,5.476,19.51132,11.02226,28.87491,17.26618,15.52671,10.35364,30.11759,21.52646,42.64428,35.64913,12.53,14.12635,22.69256,29.55895,31.71365,46.009a186.17977,186.17977,0,0,1,15.796,37.1583c3.69476,12.627,7.43756,25.35828,7.85825,38.712.04649,1.47671-.99518,3.37291,1.08533,4.40219Z" transform="translate(-852 0)"/><path class="cls-1" d="M1021.02533.09725c-6.38054,11.64542-4.14085,23.99984-2.59912,36.15924.64966,5.12373,5.63455,5.20221,9.67659,5.6655,3.282.37616,6.58572.004,9.91458.352,4.52114.47267,6.27922,3.54807,6.94021,6.9965.84519,4.40941.05866,8.62159-3.82463,11.992-3.58592,3.11227-8.1198,3.66344-12.16977,4.66494-15.13853,3.7436-30.20668,7.90879-44.51862,13.87664a180.65981,180.65981,0,0,0-47.9313,29.16777,270.88194,270.88194,0,0,0-27.43539,26.33562c-13.66647,15.42652-25.549,32.16352-34.63013,50.89769-7.41323,15.29336-12.29005,31.38445-16.95255,47.55469-2.27053,7.87454-2.91,16.22033-4.26386,24.35681-.1347.80955-.04015,1.6837-1.13463,1.88309q0-127.952-.09588-255.90383c-.0049-3.423.6708-4.10438,4.09443-4.09581Q938.55991.2066,1021.02533.09725Z" transform="translate(-852 0)"/><path class="cls-1" d="M1307.90413,260.99934c-2.08051-1.02928-1.03884-2.92548-1.08533-4.40219-.42069-13.35372-4.16349-26.085-7.85825-38.712a186.17977,186.17977,0,0,0-15.796-37.1583c-9.02109-16.45-19.18367-31.88261-31.71365-46.009-12.52669-14.12267-27.11757-25.29549-42.64428-35.64913-9.36359-6.24392-19.04356-11.79018-28.87491-17.26618-14.19753-7.908-29.49218-11.52-44.73641-16.02961-4.78253-1.41478-10.2957.17429-14.62828-4.00809-3.98529-3.84709-6.13437-7.83774-4.52647-13.04919,1.47694-4.787,5.44225-6.14913,9.85124-6.74468a16.72292,16.72292,0,0,1,1.9962-.021c12.7739-.17285,12.126-.28122,14.19612-12.69076,1.34575-8.06746-.63508-15.77752-.11509-23.61422.19254-2.90165-3.99282-2.69-2.99352-5.54778q82.46515,0,164.93-.09717c3.42357-.00857,4.09931.67274,4.09443,4.09579Q1307.8169,132.54741,1307.90413,260.99934Z" transform="translate(-852 0)"/><path class="cls-3" d="M1307.90413,504.90781Q1292.84238,490.761,1277.7827,476.612c-6.77043-6.3698-13.58688-12.69311-20.24279-19.18079-2.093-2.04019-3.12862-1.66744-4.44316.69645-2.25576,4.05634-4.78619,7.95881-7.12965,11.96774-1.69667,2.90254-2.79643,3.77227-5.57086.43752-15.8182-19.01288-31.173-38.42994-48.10476-56.49333-4.099-4.37287-4.50164-4.27619-8.36143.36474-1.06318,1.27842-2.23539,2.4691-3.25738,3.77824-4.85537,6.21977-4.85717,6.24467-10.46479,1.06842-21.63518-19.97087-41.45786-41.695-61.30226-63.39842-3.25149-3.5561-6.47335-7.14548-9.85965-10.57044-3.316-3.35393-4.05241-6.534-1.59441-11.03266,8.74482-16.005,17.13138-32.20672,25.57072-48.3772,4.459-8.54376,6.85931-8.87344,11.94191-1.13577q21.03121,32.01771,41.932,64.12114a33.58634,33.58634,0,0,0,1.9125,2.9076c1.69139,2.07774,3.08933,2.12276,4.45478-.49695,1.83394-3.51836,3.89868-6.91906,5.93057-10.33081,2.31192-3.882,4.18277-3.31589,6.515.27986,9.46978,14.6003,19.13678,29.07274,28.7453,43.58292,5.67469,8.56957,11.4801,17.055,17.01021,25.71661,1.99021,3.11721,3.1508,2.90763,4.65953-.18508a96.379,96.379,0,0,1,6.25071-10.15711c2.15479-3.30683,3.22136-2.6968,4.86294.275,8.41124,15.22787,16.96582,30.37651,25.38579,45.59965,8.02246,14.50445,15.93537,29.06948,23.92708,43.591a6.10258,6.10258,0,0,0,1.35359,1.27266Z" transform="translate(-852 0)"/><path class="cls-1" d="M852.09671,319.97721c2.88965,5.37072,2.84381,11.44849,4.021,17.21345a263.13714,263.13714,0,0,0,11.57986,39.20712c4.85112,13.00271,11.6361,25.2624,19.252,37.07117a252.6602,252.6602,0,0,0,19.37276,25.65047,141.85222,141.85222,0,0,0,18.18618,18.51005c5.56755,4.57241,11.05558,9.2443,16.62261,13.82486,9.28771,7.64187,19.82716,13.22257,30.07953,19.30748a155.18142,155.18142,0,0,0,25.11611,11.65249c13.70457,5.11471,27.53158,9.8766,42.24611,11.45773,3.87721.41653,7.63019,1.98937,11.44021,3.03127q-96.959,0-193.91788.09665c-3.42328.00695-4.10215-.67187-4.09516-4.09533Q852.19714,416.44118,852.09671,319.97721Z" transform="translate(-852 0)"/></svg>