<svg id="Layer_1" data-name="Layer 1" xmlns="http://www.w3.org/2000/svg" viewBox="0 0 2160 517"><defs><style>.cls-1{fill:#fefefe;}.cls-2{fill:#1a8e9d;}.cls-3{fill:#010101;}.cls-4{fill:#8907e2;}.cls-5{fill:#8803e2;}</style></defs><path class="cls-1" d="M287.0714.09725q934.16729,0,1868.33452-.09262c3.74747-.00058,4.59627.8414,4.59408,4.59055q-.16259,253.90455-.00049,507.8092c.00244,3.7467-.8427,4.59233-4.59261,4.59172q-946.66671-.145-1893.3333-.0928c4.91031-2.15489,10.26545-2.314,15.37587-3.49966a248.44863,248.44863,0,0,0,31.59984-9.66034c6.04879-2.28427,12.00328-4.89929,17.86418-7.50616,7.16218-3.18566,13.83874-7.57589,21.01215-10.95323,6.70693-3.15781,8.01644-9.54234,3.52685-15.34046-7.40981-9.56953-16.85825-17.17538-25.14066-25.91047-3.76615-3.972-8.71606-3.96589-13.65776-1.79077-10.28,4.52466-20.37476,9.57135-30.91725,13.37379-13.70192,4.942-28.19567,7.03157-42.62489,8.26936-17.15615,1.47171-34.12458-1.09938-50.92052-4.83086a168.7767,168.7767,0,0,1-26.89765-8.59114,159.85234,159.85234,0,0,1-24.227-12.74665,202.81976,202.81976,0,0,1-27.88923-20.73645c-6.943-6.21153-12.84093-13.62568-18.84322-20.87095-8.58581-10.36375-15.092-21.86548-20.66031-33.92483a168.09289,168.09289,0,0,1-12.68585-37.831c-1.80107-9.10724-3.86939-18.07592-4.32846-27.49588-.34628-7.10534.247-14.08233.37275-21.10661.19373-10.82071,2.94925-21.35948,5.66883-31.67577a199.849,199.849,0,0,1,28.53427-59.49833c7.69533-10.83553,17.53293-20.05149,27.25857-28.97562a153.15049,153.15049,0,0,1,32.614-22.59424c7.93277-4.15012,15.93234-8.407,24.45712-10.81341,7.87194-2.22217,15.76295-4.61251,24.01986-5.8168,9.06476-1.32209,18.07051-3.131,27.23657-3.38474,9.21728-.25518,18.36855.6467,27.57781,1.57767,9.83688.99443,19.14292,3.7,28.55853,5.957A94.66224,94.66224,0,0,1,302.91543,129.97c9.06981,5.063,18.806,9.31314,26.8996,15.6451,9.65314,7.55209,19.5107,15.02684,27.57822,24.635,5.13977,6.12132,10.6222,12.10366,14.9862,18.68211,7.036,10.6064,14.1174,21.29721,18.63516,33.42393a232.2447,232.2447,0,0,1,8.26084,26.49761c2.48531,10.27035,2.6576,20.7838,4.13543,31.13178,1.90523,13.34036-.34936,26.21291-2.28345,39.15517-1.95821,13.10336-6.17585,25.55694-11.715,37.66049-4.07255,8.89885-2.78531,11.542,4.9839,18.17656,3.36942,2.87727,6.21066,6.367,9.5316,9.3079,5.57186,4.93422,11.24519,9.76477,17.05535,14.41479,3.08777,2.47124,8.8873,1.42159,10.45049-1.94528,4.63478-9.98231,9.56529-19.88655,13.296-30.21279a161.67025,161.67025,0,0,0,8.61285-32.99326c1.492-10.8729,3.035-21.75688,3.41654-32.67042a349.0216,349.0216,0,0,0-1.48256-42.10437c-1.472-17.128-5.90778-33.36965-10.90139-49.51691-3.69684-11.95415-9.76921-23.06631-15.88406-33.97341-6.53488-11.6563-13.521-23.0972-22.23577-33.34674-7.82691-9.20536-15.941-18.09213-25.50556-25.59082-7.89081-6.18649-15.90253-12.12736-24.29571-17.66535-13.1347-8.66652-26.26239-17.097-41.02811-22.86655a199.35,199.35,0,0,0-41.9594-11.78673c-6.24276-.97342-9.43111-4.97559-9.55427-10.06714-.17555-7.25833,1.63856-10.21716,8.3655-11.59927,3.20489-.65847,6.63455-.13409,9.93144-.45931,3.39341-.33474,7.44047-.93564,7.57474-5.17773C290.17265,24.44764,293.54159,11.88066,287.0714.09725ZM639.11007,280.19416c0,11.613-.02606,21.44.00745,31.2669.03277,9.63038.32217,19.27355,2.52571,28.68247,7.12816,30.4367,26.963,49.31981,55.55918,59.673,21.87423,7.91951,44.53813,9.21535,67.49459,6.2176,3.90536-.51,6.44511-.04164,8.52251,4.18166,6.91937,14.06681,14.51373,27.80054,21.71072,41.73349,1.15158,2.22938,2.04224,3.057,4.60861,1.88052,15.14191-6.94128,30.31159-13.82761,45.58636-20.4694,3.01512-1.31106,2.56759-2.33326,1.15542-4.49011q-11.145-17.02211-22.09668-34.17049c-5.49463-8.55612-5.46729-8.57284,2.12853-15.60267.36649-.33923.70569-.70777,1.06448-1.05557,17.28717-16.755,23.395-37.859,23.543-61.16153.146-22.98417.21373-45.97225-.06646-68.95392a114.06361,114.06361,0,0,0-2.41025-24.196c-6.94214-30.27446-26.24225-49.224-54.75389-59.59563-19.12978-6.9588-38.99692-8.19072-59.167-7.22528-18.41872.88161-35.928,4.95526-52.07475,13.956C657.81,184.599,643.402,205.47986,640.10589,233.572,638.22014,249.64382,639.30232,265.83923,639.11007,280.19416ZM1960.0273,383.59249c-3.92946-10.75335-7.83964-21.2275-11.547-31.77292-.83561-2.377-1.69333-2.50331-4.18322-2.17546a332.16983,332.16983,0,0,1-56.70129,2.23778c-12.94881-.51708-20.70179-6.262-23.41371-16.95836a66.83718,66.83718,0,0,1-1.43859-12.31294c-.25486-4.07937,1.195-4.80337,4.952-4.78678,32.99305.14576,65.98684.09234,98.98051.064,1.92915-.00168,4.40318,1.00152,4.23266-2.82456-.81291-18.23754-.01416-36.58039-3.01365-54.67385-3.63664-21.93838-16.18607-36.85813-37.44847-43.15733-25.95718-7.6901-52.44435-7.09537-78.51065-.62063-23.218,5.7672-39.25691,20.3318-43.43049,44.44519-4.28063,24.731-5.00053,49.81111.08874,74.66583,3.07712,15.02805,9.19,28.60444,20.6316,39.29818,17.34441,16.2108,39.12777,18.24773,61.19394,18.44284a177.09177,177.09177,0,0,0,32.69828-2.53609C1935.41131,388.73165,1947.72541,386.65241,1960.0273,383.59249Zm-350.00242-70.61363c0,24.64517.061,49.2907-.074,73.93514-.01757,3.21971.76165,4.17724,4.07643,4.13889,15.65535-.18121,31.31742-.25936,46.96936.03523,4.32725.08143,5.06584-1.2585,5.05033-5.26444-.1566-40.29759-.02123-80.5964-.21238-120.89369-.01867-3.92522,1.46325-5.45461,4.76166-6.55845a63.51133,63.51133,0,0,1,21.37885-3.51931c16.69982.25381,24.03279,7.32315,24.03731,23.879.00976,35.96865.05285,71.93748-.07812,107.90564-.01245,3.42163.709,4.47757,4.30626,4.42794,15.65463-.216,31.31657-.25284,46.96949.01623,4.07959.07016,4.82989-1.20762,4.81561-4.98007-.1389-36.4677-.0714-72.93613-.09862-109.40434a100.62976,100.62976,0,0,0-.80193-13.38152c-3.14621-23.45866-16.24967-38.35-38.54238-45.33767-17.57132-5.50781-35.54727-5.12256-53.61086-3.05965-23.00749,2.62757-44.64438,9.70611-65.514,19.50938-2.9359,1.37913-3.51556,3.14237-3.50079,6.11489C1610.07761,264.68717,1610.02476,288.83313,1610.02488,312.97886Zm-561.01857-5.40694c0-24.31088-.07446-48.62229.08166-72.93216.02294-3.55917-.599-4.82368-4.535-4.758q-23.47846.392-46.9668.00751c-3.78586-.05778-4.61251.956-4.59835,4.65316.1483,38.63032.09154,77.26139.09154,115.89228,0,10.97708-.02423,10.89627-10.60984,14.06982-7.174,2.15081-14.54254,2.09681-21.73691,1.24121-11.5364-1.372-17.66818-9.528-17.6896-22.49342q-.08989-54.44959-.03161-108.89944c-.00055-2.2302.7257-4.5089-3.2358-4.45591-16.48658.22048-32.97829.156-49.46682.02982-2.71772-.02081-3.30556.85284-3.26876,3.40368.58064,40.27461-1.13894,80.5719.94315,120.82822,1.15048,22.24259,12.13626,38.16249,32.746,46.705,19.06717,7.90313,39.0748,7.44423,59.1738,5.20334,23.03336-2.56807,44.67214-9.60254,65.46815-19.62572,2.82971-1.36381,3.72013-2.88628,3.70451-5.93707C1048.95126,356.194,1049.00631,331.8828,1049.00631,307.57192Zm517.95475,12.50361c-.71576-15.60288,1.30774-34.92613-1.00748-54.14927-1.99018-16.52636-9.0357-30.25015-23.05094-39.92023-15.15833-10.45888-32.58184-12.46662-50.16745-12.53039-24.47538-.0888-48.11745,5.499-71.44559,12.52181-3.125.94076-3.76554,1.85924-2.56264,5.1045,3.1357,8.45884,6.00239,17.04131,8.44114,25.72473,1.30177,4.63547,3.25973,4.818,7.52363,3.72578,16.79478-4.30179,33.61666-8.38306,51.25426-7.7179,16.99594.64092,26.08169,9.53978,26.03713,26.36916-.00769,2.93808-.51826,4.04255-3.76187,3.94267-8.31958-.25625-16.666-.39206-24.9768-.01961-15.687.703-31.39566,1.04279-46.6542,5.81151-16.34561,5.10846-27.0927,15.12967-29.43857,32.4217a79.42181,79.42181,0,0,0,3.0106,36.31257c4.36156,12.93936,12.22671,22.99513,25.10252,28.66963a76.78076,76.78076,0,0,0,29.32371,6.52963c16.77122.40365,33.53976.3801,50.25545-1.81368,16.40565-2.15306,32.52911-5.246,48.01919-11.2531,3.01683-1.16991,4.24645-2.649,4.19946-6.118C1566.83656,357.04,1566.96106,340.38819,1566.96106,320.07553Zm-181.11218-5.59913c0-2.665.056-5.33131-.01172-7.99452-.13927-5.47506-.49337-5.72277-5.15555-3.33548-2.50466,1.28244-4.93755,2.7202-7.32589,4.21118-4.80207,2.99793-5.76683,2.68055-6.34954-2.96452-1.4818-14.35576-2.75305-28.733-4.16662-43.096-1.26723-12.87809-2.80676-25.73338-3.81229-38.631-.333-4.26967-1.942-3.83758-4.56332-2.30549-3.28743,1.92147-6.51151,3.95106-9.77953,5.90634-2.83324,1.69525-4.70747,2.12133-5.11979-2.3679-2.44119-26.5875-5.121-53.153-7.65838-79.73181-.75432-7.90239-1.26868-8.23051-8.33495-4.33471-.72382.39909-1.40711.87427-2.09491,1.33565-14.86258,9.97094-29.61177,20.11749-44.64828,29.819-4.86175,3.13677-6.07857,6.60078-4.56625,11.96192,3.46,12.26594,6.56619,24.63132,9.86852,36.94224,5.69932,21.246,11.68414,42.40457,18.84721,63.21964,1.199,3.4845,2.59681,4.64031,6.07441,2.90333a99.32143,99.32143,0,0,1,9.1751-3.82666c3.07309-1.16689,5.049-.3018,5.83066,3.1579,1.96979,8.71835,4.23009,17.37233,6.12324,26.10645q5.15451,23.78,9.96042,47.63452c.70831,3.52923,1.95491,4.07376,4.87957,2.18,3.05528-1.97838,6.30389-3.656,9.385-5.59681,5.34438-3.36638,5.96957-3.20973,7.91226,2.58262q11.44236,34.118,22.90753,68.22818c.53279,1.57592.60529,4.26119,2.95958,3.94808,2.10735-.2803,1.43517-2.69608,1.43407-4.22916-.01318-17.62592.4493-35.27537-.3093-52.87139C1386.46467,353.71131,1387.59677,334.05853,1385.84888,314.4764Zm-94.0592,17.70241c0-3.16425-.0581-6.32984.01745-9.49229.06811-2.85586-1.03152-3.67736-3.57781-2.26764-3.04221,1.68439-6.12568,3.3046-9.08672,5.12283-4.50485,2.7662-5.51855,2.44809-6.1042-2.94662-1.21742-11.21417-2.16558-22.45733-3.27522-33.68356-1.583-16.01376-3.39618-32.008-4.7043-48.04372-.37569-4.6054-2.077-4.00927-4.84307-2.3788-3.28,1.93343-6.52164,3.93175-9.78637,5.89119-2.73389,1.64083-4.452,1.80964-4.83148-2.27939-2.48318-26.751-5.16385-53.48362-7.69366-80.23042-.71612-7.57089-1.20741-7.90873-8.14747-4.15631-.87175.47138-1.67625,1.06975-2.50113,1.62512q-21.8594,14.71731-43.72062,29.43191c-6.78334,4.55253-7.02245,5.09394-4.94769,12.89593,4.93158,18.54608,9.71289,37.13365,14.83012,55.6284Q1199.571,279.536,1207.07194,301.38c1.11538,3.25467,2.49941,4.32449,5.78855,2.68729a94.97139,94.97139,0,0,1,9.65137-3.97428c2.87353-1.05429,4.77973-.12154,5.51294,3.04057,1.30982,5.64794,2.86913,11.24017,4.09058,16.906,4.08009,18.92787,8.1526,37.85863,11.99418,56.83558.79278,3.9168,2.16937,4.17577,5.16739,2.23317,3.054-1.979,6.285-3.68374,9.36649-5.62283,4.9788-3.13283,5.7822-2.90684,7.6148,2.56361q11.50937,34.35774,23.04631,68.70615c.48738,1.44224.68036,3.941,2.68213,3.68944,2.52847-.31775,1.63609-2.90973,1.63682-4.54254.00745-17.45936.45443-34.94221-.29917-52.37195C1292.4687,371.74718,1293.59079,351.92823,1291.78968,332.17881ZM465.8668,511.42471c-.46581-1.01485-.85192-1.92738-1.29518-2.81123-10.92277-21.77927-23.04841-42.91163-34.68749-64.30461-8.00179-14.70755-16.38051-29.20974-24.50549-43.851-1.63295-2.94253-2.68614-3.61467-4.86652-.29167a114.45863,114.45863,0,0,0-6.48722,10.59945c-1.24449,2.43576-2.38187,2.88359-4.15295.17162-8.16191-12.49787-16.48875-24.888-24.73619-37.3302-7.23547-10.91558-14.51379-21.80389-21.62141-32.80229-2.08307-3.22334-3.78913-3.76385-5.90243-.23853-1.87221,3.12319-3.78272,6.22475-5.59033,9.385-2.52248,4.41012-3.27388,4.4628-6.1366.08972q-16.3545-24.98334-32.68312-49.98363c-4.36769-6.65689-8.85542-13.235-13.27923-19.85521-1.365-2.04279-2.59523-2.76288-4.26094-.144-1.23347,1.9393-3.23025,3.42821-4.30059,5.431-8.75569,16.3832-17.26474,32.89891-26.11242,49.23162-2.126,3.92452-1.37677,6.91385,1.18334,9.944,1.06512,1.2607,2.31467,2.36361,3.44,3.57574,22.38973,24.11556,44.255,48.73617,68.4958,71.06846,5.65422,5.2091,5.65865,5.20419,10.15114-.80158,7.27-9.719,7.327-9.77005,15.39207-.79151,15.54047,17.30066,30.206,35.34647,44.9924,53.284,2.13732,2.5928,3.24782,2.20577,4.71559-.15452,2.36526-3.80356,5.03208-7.472,6.9291-11.49983,1.94795-4.136,3.38035-3.64518,6.31753-.83309,17.99664,17.23025,36.17384,34.272,54.27,51.39861C462.35667,511.06657,463.3704,512.49017,465.8668,511.42471ZM1148.998,317.73235c0-27.65142-.09912-55.30358.10851-82.95347.03063-4.08544-1.22524-4.832-4.97039-4.78356-15.66.20268-31.32487.16875-46.98584.01521-3.13278-.03071-4.17065.61729-4.16345,4.00937q.17557,83.4537.00085,166.9077c-.00695,3.37535,1.00492,4.05082,4.15393,4.01937,15.661-.15647,31.32573-.18606,46.98572.01247,3.72648.04723,5.01189-.66866,4.98028-4.77335C1148.89666,372.70284,1148.998,345.21722,1148.998,317.73235ZM1120.68723,210.9481c8.66,0,17.32172-.10012,25.97879.0606,2.61976.04866,3.34187-.70382,3.31868-3.31865-.12548-14.15053-.14855-28.30377.01452-42.45354.03308-2.86086-1.08023-3.18214-3.46075-3.17131-16.98642.07724-33.97393.10673-50.95974-.02353-2.82336-.02165-3.60283.74972-3.5739,3.57269q.21495,20.97554-.00952,41.95388c-.03686,3.02712,1.06851,3.48425,3.7122,3.436C1104.03172,210.8523,1112.36033,210.94825,1120.68723,210.9481Z" transform="translate(0 0)"/><path class="cls-2" d="M287.0714.09725c6.47019,11.78341,3.10125,24.35039,2.71265,36.62714-.13427,4.24209-4.18133,4.843-7.57474,5.17773-3.29689.32522-6.72655-.19916-9.93144.45931-6.72694,1.38211-8.541,4.34094-8.3655,11.59927.12316,5.09155,3.31151,9.09372,9.55427,10.06714A199.35,199.35,0,0,1,315.426,75.81457c14.76572,5.76956,27.89341,14.2,41.02811,22.86655,8.39318,5.538,16.4049,11.47886,24.29571,17.66535,9.56453,7.49869,17.67865,16.38546,25.50556,25.59082,8.71478,10.24954,15.70089,21.69044,22.23577,33.34674,6.11485,10.9071,12.18722,22.01926,15.88406,33.97341,4.99361,16.14726,9.42935,32.38893,10.90139,49.51691a349.0216,349.0216,0,0,1,1.48256,42.10437c-.38156,10.91354-1.92451,21.79752-3.41654,32.67042a161.67025,161.67025,0,0,1-8.61285,32.99326c-3.73072,10.32624-8.66123,20.23048-13.296,30.21279-1.56319,3.36687-7.36272,4.41652-10.45049,1.94528-5.81016-4.65-11.48349-9.48057-17.05535-14.41479-3.32094-2.94088-6.16218-6.43063-9.5316-9.3079-7.76921-6.6346-9.05645-9.27771-4.9839-18.17656,5.53912-12.10355,9.75676-24.55713,11.715-37.66049,1.93409-12.94226,4.18868-25.81481,2.28345-39.15517-1.47783-10.348-1.65012-20.86143-4.13543-31.13178a232.2447,232.2447,0,0,0-8.26084-26.49761c-4.51776-12.12672-11.59913-22.81753-18.63516-33.42393-4.364-6.57845-9.84643-12.56079-14.9862-18.68211-8.06752-9.60818-17.92508-17.08293-27.57822-24.635-8.09359-6.332-17.82979-10.58215-26.8996-15.6451a94.66224,94.66224,0,0,0-23.95748-9.44318c-9.41561-2.25707-18.72165-4.9626-28.55853-5.957-9.20926-.931-18.36053-1.83285-27.57781-1.57767-9.16606.25377-18.17181,2.06265-27.23657,3.38474-8.25691,1.20429-16.14792,3.59463-24.01986,5.8168-8.52478,2.40645-16.52435,6.66329-24.45712,10.81341a153.15049,153.15049,0,0,0-32.614,22.59424c-9.72564,8.92413-19.56324,18.14009-27.25857,28.97562a199.849,199.849,0,0,0-28.53427,59.49833c-2.71958,10.31629-5.4751,20.85506-5.66883,31.67577-.12576,7.02428-.719,14.00127-.37275,21.10661.45907,9.42,2.52739,18.38864,4.32846,27.49588a168.09289,168.09289,0,0,0,12.68585,37.831c5.56828,12.05935,12.0745,23.56108,20.66031,33.92483,6.00229,7.24527,11.9002,14.65942,18.84322,20.87095a202.81976,202.81976,0,0,0,27.88923,20.73645,159.85234,159.85234,0,0,0,24.227,12.74665,168.7767,168.7767,0,0,0,26.89765,8.59114c16.79594,3.73148,33.76437,6.30257,50.92052,4.83086,14.42922-1.23779,28.923-3.3274,42.62489-8.26936,10.54249-3.80244,20.63721-8.84913,30.91725-13.37379,4.9417-2.17512,9.89161-2.18122,13.65776,1.79077,8.28241,8.73509,17.73085,16.34094,25.14066,25.91047,4.48959,5.79812,3.18008,12.18265-3.52685,15.34046-7.17341,3.37734-13.85,7.76757-21.01215,10.95323-5.8609,2.60687-11.81539,5.22189-17.86418,7.50616a248.44863,248.44863,0,0,1-31.59984,9.66034c-5.11042,1.18565-10.46556,1.34477-15.37587,3.49966H198.07926c-.14429-.28016-.24054-.76436-.43977-.81128-10.90408-2.56617-22.02363-3.79661-32.88894-6.99636a227.8217,227.8217,0,0,1-38.44476-14.73022c-8.53541-4.30091-16.85223-9.0833-25.0088-14.072-6.09638-3.72861-12.33357-7.54585-17.48013-12.41048-4.391-4.15045-9.1976-7.79556-13.49113-12.01145-5.751-5.647-11.99967-10.96122-16.82572-17.33337C47.0681,430.04573,39.7633,422.165,34.5346,412.75321c-3.57857-6.44149-7.95231-12.46486-11.22892-19.0443a186.74974,186.74974,0,0,1-8.95223-21.59575,305.77369,305.77369,0,0,1-10.16394-34.4438c-1.31512-5.90794-1.22325-12.14422-4.09277-17.69215V259.99972c3.29284-6.573,2.83358-13.94943,4.36131-20.90482a257.35459,257.35459,0,0,1,9.38759-32.97537A203.36631,203.36631,0,0,1,50.496,143.12986a303.21831,303.21831,0,0,1,22.36231-23.60144A222.36129,222.36129,0,0,1,97.685,98.96251a172.73069,172.73069,0,0,1,45.97075-23.04726c10.93252-3.55179,21.88143-6.96724,32.99228-9.94944,4.0664-1.09144,8.49008-1.60477,12.21915-4.56941,4.31113-3.42738,4.85869-7.6935,4.18207-12.258-.71271-4.80794-4.35852-6.91035-9.0189-7.15526-2.65652-.13959-5.36734.26323-7.98-.10347-3.729-.52338-8.70275-.18391-9.4206-5.1563-1.77849-12.31908-3.92416-24.79906,2.452-36.6261Z" transform="translate(0 0)"/><path class="cls-1" d="M169.08182.09725c-6.37617,11.827-4.2305,24.307-2.452,36.6261.71785,4.97239,5.69157,4.63292,9.4206,5.1563,2.61261.3667,5.32343-.03612,7.98.10347,4.66038.24491,8.30619,2.34732,9.0189,7.15526.67662,4.56452.12906,8.83064-4.18207,12.258-3.72907,2.96464-8.15275,3.478-12.21915,4.56941-11.11085,2.9822-22.05976,6.39765-32.99228,9.94944A172.73069,172.73069,0,0,0,97.685,98.96251a222.36129,222.36129,0,0,0-24.82668,20.56591A303.21831,303.21831,0,0,0,50.496,143.12986a203.36631,203.36631,0,0,0-36.65038,62.98967A257.35459,257.35459,0,0,0,4.45805,239.0949c-1.52773,6.95539-1.06847,14.33178-4.36131,20.90482q0-127.952-.0959-255.90383C-.00407.67289.67185-.00849,4.09663.00008Q86.58883.2066,169.08182.09725Z" transform="translate(0 0)"/><path class="cls-1" d="M.09674,319.97721c2.86952,5.54793,2.77765,11.78421,4.09277,17.69215a305.77369,305.77369,0,0,0,10.16394,34.4438,186.74974,186.74974,0,0,0,8.95223,21.59575c3.27661,6.57944,7.65035,12.60281,11.22892,19.0443C39.7633,422.165,47.0681,430.04573,53.5,438.53815c4.826,6.37215,11.07468,11.68632,16.82572,17.33337,4.29353,4.21589,9.10018,7.861,13.49113,12.01145,5.14656,4.86463,11.38375,8.68187,17.48013,12.41048,8.15657,4.98869,16.47339,9.77108,25.0088,14.072a227.8217,227.8217,0,0,0,38.44476,14.73022c10.86531,3.19975,21.98486,4.43019,32.88894,6.99636.19923.04692.29548.53112.43977.81128q-96.99145,0-193.98268.09665c-3.42443.00695-4.10352-.67187-4.09653-4.09533Q.19721,416.44118.09674,319.97721Z" transform="translate(0 0)"/><path class="cls-3" d="M639.11007,280.19416c.19225-14.35493-.88993-30.55034.99582-46.62219C643.402,205.47986,657.81,184.599,682.44761,170.8652c16.14677-9.00076,33.656-13.07441,52.07475-13.956,20.1701-.96544,40.03724.26648,59.167,7.22528,28.51164,10.37165,47.81175,29.32117,54.75389,59.59563a114.06361,114.06361,0,0,1,2.41025,24.196c.28019,22.98167.2125,45.96975.06646,68.95392-.14806,23.30257-6.25586,44.40652-23.543,61.16153-.35879.3478-.698.71634-1.06448,1.05557-7.59582,7.02983-7.62316,7.04655-2.12853,15.60267Q835.17827,411.82,846.28062,428.8703c1.41217,2.15685,1.8597,3.17905-1.15542,4.49011-15.27477,6.64179-30.44445,13.52812-45.58636,20.4694-2.56637,1.1765-3.457.34886-4.60861-1.88052-7.197-13.933-14.79135-27.66668-21.71072-41.73349-2.0774-4.2233-4.61715-4.69166-8.52251-4.18166-22.95646,2.99775-45.62036,1.70191-67.49459-6.2176-28.59622-10.3532-48.431-29.23631-55.55918-59.673-2.20354-9.40892-2.49294-19.05209-2.52571-28.68247C639.084,301.63421,639.11007,291.80715,639.11007,280.19416Zm150.98661,1.94108h-.03332c0-15.31.72051-30.66286-.1859-45.91906-1.087-18.29647-8.03073-27.10293-22.62068-30.91565a82.34386,82.34386,0,0,0-42.74452-.17164c-15.78108,4.2915-23.782,14.56591-24.23858,31.12891-.84343,30.59661-.80077,61.24649-.03613,91.84691.40957,16.39336,8.80037,27.02361,24.83026,31.02275,10.18886,2.5419,20.51546,2.60346,30.66789,1.62146,20.06549-1.94073,34.01311-11.46966,34.32955-36.67715C790.24065,310.095,790.09668,296.11421,790.09668,282.13524Z" transform="translate(0 0)"/><path class="cls-3" d="M1960.0273,383.59249c-12.30189,3.05992-24.616,5.13916-36.90934,7.33487a177.09177,177.09177,0,0,1-32.69828,2.53609c-22.06617-.19511-43.84953-2.232-61.19394-18.44284-11.44162-10.69374-17.55448-24.27013-20.6316-39.29818-5.08927-24.85472-4.36937-49.93488-.08874-74.66583,4.17358-24.11339,20.21245-38.678,43.43049-44.44519,26.0663-6.47474,52.55347-7.06947,78.51065.62063,21.2624,6.2992,33.81183,21.21895,37.44847,43.15733,2.99949,18.09346,2.20074,36.43631,3.01365,54.67385.17052,3.82608-2.30351,2.82288-4.23266,2.82456-32.99367.02837-65.98746.08179-98.98051-.064-3.757-.01659-5.20682.70741-4.952,4.78678a66.83718,66.83718,0,0,0,1.43859,12.31294c2.71192,10.6964,10.4649,16.44128,23.41371,16.95836a332.16983,332.16983,0,0,0,56.70129-2.23778c2.48989-.32785,3.34761-.20149,4.18322,2.17546C1952.18766,362.365,1956.09784,372.83914,1960.0273,383.59249Zm-71.03548-99.532,20.44461,0c7.26523,0,7.24558.00183,6.58474-6.99115-.14024-1.48464.05481-3.0058-.1367-4.48-1.69809-13.07145-4.7314-18.3142-15.05312-20.17422a68.16352,68.16352,0,0,0-22.32066.086c-9.26322,1.42445-14.54522,6.8388-16.08647,16.20528-.68292,4.15048-.05627,8.30276-.72332,12.377-.43356,2.64768.54634,3.04985,2.85778,3.019C1872.70176,283.99379,1880.84728,284.06014,1888.99182,284.06048Z" transform="translate(0 0)"/><path class="cls-3" d="M1610.02488,312.97886c-.00012-24.14573.05273-48.29169-.06774-72.43679-.01477-2.97252.56489-4.73576,3.50079-6.11489,20.86961-9.80327,42.5065-16.88181,65.514-19.50938,18.06359-2.06291,36.03954-2.44816,53.61086,3.05965,22.29271,6.9877,35.39617,21.879,38.54238,45.33767a100.62976,100.62976,0,0,1,.80193,13.38152c.02722,36.46821-.04028,72.93664.09862,109.40434.01428,3.77245-.736,5.05023-4.81561,4.98007-15.65292-.26907-31.31486-.23219-46.96949-.01623-3.59721.04963-4.31871-1.00631-4.30626-4.42794.131-35.96816.08788-71.937.07812-107.90564-.00452-16.55586-7.33749-23.6252-24.03731-23.879a63.51133,63.51133,0,0,0-21.37885,3.51931c-3.29841,1.10384-4.78033,2.63323-4.76166,6.55845.19115,40.29729.05578,80.5961.21238,120.89369.01551,4.00594-.72308,5.34587-5.05033,5.26444-15.65194-.29459-31.314-.21644-46.96936-.03523-3.31478.03835-4.094-.91918-4.07643-4.13889C1610.08591,362.26956,1610.02488,337.624,1610.02488,312.97886Z" transform="translate(0 0)"/><path class="cls-3" d="M1049.00631,307.57192c0,24.31088-.055,48.62207.06933,72.93232.01562,3.05079-.8748,4.57326-3.70451,5.93707-20.796,10.02318-42.43479,17.05765-65.46815,19.62572-20.099,2.24089-40.10663,2.69979-59.1738-5.20334-20.60975-8.54248-31.59553-24.46238-32.746-46.705-2.08209-40.25632-.36251-80.55361-.94315-120.82822-.0368-2.55084.551-3.42449,3.26876-3.40368,16.48853.12617,32.98024.19066,49.46682-.02982,3.9615-.053,3.23525,2.22571,3.2358,4.45591q.01272,54.44973.03161,108.89944c.02142,12.96541,6.1532,21.1214,17.6896,22.49342,7.19437.8556,14.56292.9096,21.73691-1.24121,10.58561-3.17355,10.60984-3.09274,10.60984-14.06982,0-38.63089.05676-77.262-.09154-115.89228-.01416-3.69713.81249-4.71094,4.59835-4.65316q23.47954.35822,46.9668-.00751c3.93605-.06571,4.55794,1.1988,4.535,4.758C1048.93185,258.94963,1049.00631,283.261,1049.00631,307.57192Z" transform="translate(0 0)"/><path class="cls-3" d="M1566.96106,320.07553c0,20.31266-.1245,36.96449.10155,53.61156.047,3.469-1.18263,4.948-4.19946,6.118-15.49008,6.00711-31.61354,9.1-48.01919,11.2531-16.71569,2.19378-33.48423,2.21733-50.25545,1.81368a76.78076,76.78076,0,0,1-29.32371-6.52963c-12.87581-5.6745-20.741-15.73027-25.10252-28.66963a79.42181,79.42181,0,0,1-3.0106-36.31257c2.34587-17.292,13.093-27.31324,29.43857-32.4217,15.25854-4.76872,30.96723-5.10853,46.6542-5.81151,8.31079-.37245,16.65722-.23664,24.9768.01961,3.24361.09988,3.75418-1.00459,3.76187-3.94267.04456-16.82938-9.04119-25.72824-26.03713-26.36916-17.6376-.66516-34.45948,3.41611-51.25426,7.7179-4.2639,1.09218-6.22186.90969-7.52363-3.72578-2.43875-8.68342-5.30544-17.26589-8.44114-25.72473-1.2029-3.24526-.56233-4.16374,2.56264-5.1045,23.32814-7.02285,46.97021-12.61061,71.44559-12.52181,17.58561.06377,35.00912,2.07151,50.16745,12.53039,14.01524,9.67008,21.06076,23.39387,23.05094,39.92023C1568.2688,285.1494,1566.2453,304.47265,1566.96106,320.07553Zm-55.92829,14.427c0-5.49065-.09081-10.98349.04406-16.47084.055-2.24473-.38412-3.22258-2.94761-3.1813-10.1495.16363-20.31217-.17184-30.452.18743-11.88615.42113-17.783,6.81894-17.77528,18.51011.00146,2.16237-.05176,4.33187.09667,6.48591.673,9.76385,6.18512,16.997,14.90969,17.70673,10.70682.8711,21.47967.79838,32.02342-2.38671,3.40412-1.0283,4.38182-2.511,4.17871-5.88152C1510.81062,344.49886,1511.03289,339.494,1511.03277,334.50249Z" transform="translate(0 0)"/><path class="cls-4" d="M1385.84888,314.4764c1.74789,19.58213.61579,39.23491,1.46129,58.85164.7586,17.596.29612,35.24547.3093,52.87139.0011,1.53308.67328,3.94886-1.43407,4.22916-2.35429.31311-2.42679-2.37216-2.95958-3.94808q-11.52529-34.08987-22.90753-68.22818c-1.94269-5.79235-2.56788-5.949-7.91226-2.58262-3.08115,1.94084-6.32976,3.61843-9.385,5.59681-2.92466,1.89376-4.17126,1.34923-4.87957-2.18q-4.788-23.856-9.96042-47.63452c-1.89315-8.73412-4.15345-17.3881-6.12324-26.10645-.78167-3.4597-2.75757-4.32479-5.83066-3.1579a99.32143,99.32143,0,0,0-9.1751,3.82666c-3.4776,1.737-4.87542.58117-6.07441-2.90333-7.16307-20.81507-13.14789-41.97363-18.84721-63.21964-3.30233-12.31092-6.4085-24.6763-9.86852-36.94224-1.51232-5.36114-.2955-8.82515,4.56625-11.96192,15.03651-9.70152,29.7857-19.84807,44.64828-29.819.6878-.46138,1.37109-.93656,2.09491-1.33565,7.06627-3.8958,7.58063-3.56768,8.33495,4.33471,2.53738,26.57883,5.21719,53.14431,7.65838,79.73181.41232,4.48923,2.28655,4.06315,5.11979,2.3679,3.268-1.95528,6.4921-3.98487,9.77953-5.90634,2.62135-1.53209,4.23034-1.96418,4.56332,2.30549,1.00553,12.89761,2.54506,25.7529,3.81229,38.631,1.41357,14.363,2.68482,28.74022,4.16662,43.096.58271,5.64507,1.54747,5.96245,6.34954,2.96452,2.38834-1.491,4.82123-2.92874,7.32589-4.21118,4.66218-2.38729,5.01628-2.13958,5.15555,3.33548C1385.9049,309.14509,1385.84888,311.81145,1385.84888,314.4764Z" transform="translate(0 0)"/><path class="cls-4" d="M1291.78968,332.17881c1.80111,19.74942.679,39.56837,1.53465,59.35147.7536,17.42974.30662,34.91259.29917,52.37195-.00073,1.63281.89165,4.22479-1.63682,4.54254-2.00177.25156-2.19475-2.2472-2.68213-3.68944q-11.59707-34.32813-23.04631-68.70615c-1.8326-5.47045-2.636-5.69644-7.6148-2.56361-3.08152,1.93909-6.31244,3.64383-9.36649,5.62283-2.998,1.9426-4.37461,1.68363-5.16739-2.23317-3.84158-18.97695-7.91409-37.90771-11.99418-56.83558-1.22145-5.66587-2.78076-11.2581-4.09058-16.906-.73321-3.16211-2.63941-4.09486-5.51294-3.04057a94.97139,94.97139,0,0,0-9.65137,3.97428c-3.28914,1.6372-4.67317.56738-5.78855-2.68729q-7.48542-21.84265-13.65443-44.08459c-5.11723-18.49475-9.89854-37.08232-14.83012-55.6284-2.07476-7.802-1.83565-8.3434,4.94769-12.89593q21.88081-14.6853,43.72062-29.43191c.82488-.55537,1.62938-1.15374,2.50113-1.62512,6.94006-3.75242,7.43135-3.41458,8.14747,4.15631,2.52981,26.7468,5.21048,53.47941,7.69366,80.23042.37948,4.089,2.09759,3.92022,4.83148,2.27939,3.26473-1.95944,6.50638-3.95776,9.78637-5.89119,2.76611-1.63047,4.46738-2.2266,4.84307,2.3788,1.30812,16.03572,3.12131,32.03,4.7043,48.04372,1.10964,11.22623,2.0578,22.46939,3.27522,33.68356.58565,5.39471,1.59935,5.71282,6.1042,2.94662,2.961-1.81823,6.04451-3.43844,9.08672-5.12283,2.54629-1.40972,3.64592-.58822,3.57781,2.26764C1291.73158,325.849,1291.78968,329.01456,1291.78968,332.17881Z" transform="translate(0 0)"/><path class="cls-5" d="M465.8668,511.42471c-2.4964,1.06546-3.51013-.35814-4.73112-1.51372-18.09615-17.12663-36.27335-34.16836-54.27-51.39861-2.93718-2.81209-4.36958-3.30287-6.31753.83309-1.897,4.02787-4.56384,7.69627-6.9291,11.49983-1.46777,2.36029-2.57827,2.74732-4.71559.15452-14.78639-17.93755-29.45193-35.98336-44.9924-53.284-8.065-8.97854-8.122-8.92747-15.39207.79151-4.49249,6.00577-4.49692,6.01068-10.15114.80158-24.24081-22.33229-46.10607-46.9529-68.4958-71.06846-1.12536-1.21213-2.37491-2.315-3.44-3.57574-2.56011-3.03011-3.30934-6.01944-1.18334-9.944,8.84768-16.33271,17.35673-32.84842,26.11242-49.23162,1.07034-2.00279,3.06712-3.4917,4.30059-5.431,1.66571-2.61892,2.89589-1.89883,4.26094.144,4.42381,6.62019,8.91154,13.19832,13.27923,19.85521q16.38067,24.96614,32.68312,49.98363c2.86272,4.37308,3.61412,4.3204,6.1366-.08972,1.80761-3.16022,3.71812-6.26178,5.59033-9.385,2.1133-3.52532,3.81936-2.98481,5.90243.23853,7.10762,10.9984,14.38594,21.88671,21.62141,32.80229,8.24744,12.44217,16.57428,24.83233,24.73619,37.3302,1.77108,2.712,2.90846,2.26414,4.15295-.17162a114.45863,114.45863,0,0,1,6.48722-10.59945c2.18038-3.323,3.23357-2.65086,4.86652.29167,8.125,14.64129,16.5037,29.14348,24.50549,43.851,11.63908,21.393,23.76472,42.52534,34.68749,64.30461C465.01488,509.49733,465.401,510.40986,465.8668,511.42471Z" transform="translate(0 0)"/><path class="cls-3" d="M1148.998,317.73235c0,27.48487-.10131,54.97049.10961,82.45374.03161,4.10469-1.2538,4.82058-4.98028,4.77335-15.66-.19853-31.32475-.16894-46.98572-.01247-3.149.03145-4.16088-.644-4.15393-4.01937q.17338-83.45365-.00085-166.9077c-.0072-3.39208,1.03067-4.04008,4.16345-4.00937,15.661.15354,31.32585.18747,46.98584-.01521,3.74515-.04847,5.001.69812,4.97039,4.78356C1148.89885,262.42877,1148.998,290.08093,1148.998,317.73235Z" transform="translate(0 0)"/><path class="cls-3" d="M1120.68723,210.94818c-8.3269.00007-16.65551-.09588-24.97972.05607-2.64369.04824-3.74906-.40889-3.7122-3.436q.25449-20.97465.00952-41.95388c-.02893-2.823.75054-3.59434,3.5739-3.57269,16.98581.13026,33.97332.10077,50.95974.02353,2.38052-.01083,3.49383.31045,3.46075,3.17131-.16307,14.14977-.14,28.303-.01452,42.45354.02319,2.61483-.69892,3.36731-3.31868,3.31865C1138.009,210.848,1129.34724,210.9481,1120.68723,210.94818Z" transform="translate(0 0)"/><path class="cls-1" d="M790.09668,282.13524c0,13.979.144,27.95975-.03143,41.93653-.31644,25.20749-14.26406,34.73642-34.32955,36.67715-10.15243.982-20.479.92044-30.66789-1.62146-16.02989-3.99914-24.42069-14.62939-24.83026-31.02275-.76464-30.60042-.8073-61.2503.03613-91.84691.45656-16.563,8.4575-26.83741,24.23858-31.12891a82.34386,82.34386,0,0,1,42.74452.17164c14.58995,3.81272,21.53368,12.61918,22.62068,30.91565.90641,15.2562.1859,30.609.1859,45.91906Z" transform="translate(0 0)"/><path class="cls-1" d="M1888.99182,284.06033c-8.14454-.00019-16.29006-.06654-24.43314.042-2.31144.03085-3.29134-.37132-2.85778-3.019.66705-4.07422.0404-8.2265.72332-12.377,1.54125-9.36648,6.82325-14.78083,16.08647-16.20528a68.16352,68.16352,0,0,1,22.32066-.086c10.32172,1.86,13.355,7.10277,15.05312,20.17422.19151,1.47424-.00354,2.9954.1367,4.48.66084,6.993.68049,6.99115-6.58474,6.99115Q1899.21418,284.06051,1888.99182,284.06033Z" transform="translate(0 0)"/><path class="cls-1" d="M1511.03289,334.50249c0,4.9915-.22227,9.99637.07751,14.96981.20311,3.37053-.77459,4.85322-4.17871,5.88152-10.54375,3.18509-21.3166,3.25781-32.02342,2.38671-8.72457-.70978-14.23665-7.94288-14.90969-17.70673-.14843-2.154-.09521-4.32354-.09667-6.48591-.00769-11.69117,5.88913-18.089,17.77528-18.51011,10.13986-.35927,20.30253-.0238,30.452-.18743,2.56349-.04128,3.00266.93657,2.94761,3.1813C1510.942,323.519,1511.03277,329.01184,1511.03289,334.50249Z" transform="translate(0 0)"/></svg>